<?xml version="1.0" encoding="utf-8"?>
<!-- Generator: Adobe Illustrator 16.0.0, SVG Export Plug-In . SVG Version: 6.00 Build 0)  -->
<!DOCTYPE svg PUBLIC "-//W3C//DTD SVG 1.1//EN" "http://www.w3.org/Graphics/SVG/1.1/DTD/svg11.dtd">
<svg version="1.1" id="Layer_1" xmlns="http://www.w3.org/2000/svg" xmlns:xlink="http://www.w3.org/1999/xlink" x="0px" y="0px"
	 width="413.225px" height="70.057px" viewBox="0 0 413.225 70.057" enable-background="new 0 0 413.225 70.057"
	 xml:space="preserve">
<g>
	<path d="M7.069,39.01c-0.909,0-1.789-0.17-2.641-0.511c-0.852-0.341-1.604-0.815-2.257-1.427c-0.653-0.61-1.179-1.342-1.576-2.193
		C0.199,34.027,0,33.091,0,32.068c0-1.618,0.355-3.003,1.064-4.152s1.682-2.087,2.917-2.811c1.235-0.725,2.683-1.257,4.344-1.598
		s3.456-0.511,5.387-0.511c1.533,0,3.13,0.143,4.792,0.426c1.661,0.284,3.385,0.725,5.174,1.32c1.874-3.236,3.96-6.353,6.26-9.348
		s4.798-5.629,7.496-7.9c2.697-2.271,5.571-4.088,8.624-5.451C49.11,0.682,52.297,0,55.619,0c1.221,0,2.456,0.1,3.706,0.298
		c1.249,0.199,2.512,0.511,3.79,0.937L57.962,54H43.908l0.809-7.068c-0.994-0.938-2.073-1.923-3.236-2.96
		c-1.165-1.036-2.4-2.079-3.706-3.13c-1.306-1.051-2.669-2.08-4.088-3.088c-1.42-1.008-2.853-1.938-4.301-2.79
		c-0.795,1.732-1.512,3.457-2.15,5.175c-0.639,1.718-1.186,3.393-1.64,5.025c-0.455,1.633-0.81,3.194-1.065,4.684
		S24.147,52.723,24.147,54H13.841c0-1.305,0.149-2.816,0.447-4.535c0.298-1.717,0.724-3.562,1.277-5.537
		c0.554-1.973,1.242-4.052,2.066-6.239c0.823-2.186,1.76-4.4,2.811-6.644c-1.647-0.396-3.18-0.596-4.6-0.596
		c-0.681,0-1.363,0.042-2.044,0.128c0.113,0.482,0.17,1.036,0.17,1.66c0,0.938-0.185,1.817-0.554,2.641
		c-0.37,0.824-0.867,1.541-1.491,2.15c-0.625,0.611-1.356,1.094-2.193,1.448C8.893,38.833,8.006,39.01,7.069,39.01z M32.537,28.704
		c2.385,1.306,4.656,2.732,6.814,4.28c2.157,1.548,4.272,3.187,6.345,4.918l2.854-26.105c-1.25,0.228-2.555,0.83-3.918,1.81
		s-2.74,2.229-4.131,3.748s-2.761,3.251-4.109,5.195C35.042,24.495,33.757,26.547,32.537,28.704z"/>
	<path d="M74.656,70.057l-13.5-1.064l5.196-51.191l13.67-0.469c-0.085,0.596-0.149,1.072-0.191,1.427
		c-0.042,0.355-0.121,0.83-0.234,1.427c0.88-0.653,1.938-1.277,3.173-1.874s2.704-0.895,4.408-0.895
		c1.959,0,3.634,0.349,5.025,1.044c1.391,0.695,2.534,1.675,3.428,2.938c0.895,1.264,1.555,2.775,1.98,4.535
		c0.426,1.761,0.639,3.705,0.639,5.835c0,1.136-0.036,2.491-0.106,4.066c-0.071,1.576-0.27,3.202-0.596,4.877
		c-0.327,1.676-0.809,3.329-1.448,4.96c-0.639,1.633-1.533,3.104-2.683,4.408c-1.15,1.307-2.591,2.357-4.323,3.152
		c-1.732,0.795-3.848,1.191-6.346,1.191c-1.817,0-3.194-0.191-4.131-0.574s-1.647-0.873-2.129-1.469L74.656,70.057z M79.085,44.93
		c0.937,0,1.725-0.298,2.363-0.895c0.639-0.596,1.164-1.341,1.576-2.235s0.738-1.867,0.979-2.917
		c0.241-1.051,0.412-2.03,0.511-2.939c0.099-0.908,0.163-1.667,0.192-2.278c0.028-0.61,0.042-0.93,0.042-0.958
		c0-2.101-0.277-3.584-0.831-4.45s-1.214-1.299-1.98-1.299c-0.483,0-0.979,0.148-1.49,0.447c-0.511,0.298-0.979,0.731-1.406,1.299
		c-0.34,2.584-0.646,5.146-0.916,7.687c-0.27,2.542-0.561,5.104-0.873,7.688c0.142,0.228,0.362,0.426,0.66,0.596
		C78.212,44.845,78.602,44.93,79.085,44.93z"/>
	<path d="M111.579,70.057l-13.5-1.064l5.196-51.191l13.67-0.469c-0.085,0.596-0.149,1.072-0.191,1.427
		c-0.042,0.355-0.121,0.83-0.234,1.427c0.88-0.653,1.938-1.277,3.173-1.874s2.704-0.895,4.408-0.895
		c1.959,0,3.634,0.349,5.025,1.044c1.391,0.695,2.534,1.675,3.428,2.938c0.895,1.264,1.555,2.775,1.98,4.535
		c0.426,1.761,0.639,3.705,0.639,5.835c0,1.136-0.036,2.491-0.106,4.066c-0.071,1.576-0.27,3.202-0.596,4.877
		c-0.327,1.676-0.809,3.329-1.448,4.96c-0.639,1.633-1.533,3.104-2.683,4.408c-1.15,1.307-2.591,2.357-4.323,3.152
		c-1.732,0.795-3.848,1.191-6.346,1.191c-1.817,0-3.194-0.191-4.131-0.574s-1.647-0.873-2.129-1.469L111.579,70.057z M116.008,44.93
		c0.937,0,1.725-0.298,2.363-0.895c0.639-0.596,1.164-1.341,1.576-2.235s0.738-1.867,0.979-2.917
		c0.241-1.051,0.412-2.03,0.511-2.939c0.099-0.908,0.163-1.667,0.192-2.278c0.028-0.61,0.042-0.93,0.042-0.958
		c0-2.101-0.277-3.584-0.831-4.45s-1.214-1.299-1.98-1.299c-0.483,0-0.979,0.148-1.49,0.447c-0.511,0.298-0.979,0.731-1.406,1.299
		c-0.34,2.584-0.646,5.146-0.916,7.687c-0.27,2.542-0.561,5.104-0.873,7.688c0.142,0.228,0.362,0.426,0.66,0.596
		C115.135,44.845,115.525,44.93,116.008,44.93z"/>
	<path d="M161.917,44.76c-0.483,1.391-1.229,2.682-2.236,3.875c-1.008,1.191-2.158,2.236-3.45,3.129
		c-1.292,0.895-2.669,1.598-4.131,2.109c-1.463,0.51-2.89,0.766-4.28,0.766c-1.789,0-3.308-0.275-4.557-0.83
		c-1.25-0.553-2.279-1.326-3.088-2.32s-1.398-2.201-1.767-3.621c-0.37-1.418-0.554-2.981-0.554-4.684
		c0-0.738,0.042-1.476,0.127-2.215l3.791-38.286l13.415-1.107c-0.312,2.896-0.639,5.998-0.979,9.306s-0.681,6.644-1.022,10.008
		c-0.341,3.365-0.682,6.701-1.022,10.009c-0.341,3.308-0.682,6.409-1.022,9.305c-0.085,0.427-0.127,0.781-0.127,1.065
		c0,0.426,0.035,0.845,0.106,1.256c0.07,0.412,0.198,0.767,0.383,1.064c0.184,0.299,0.439,0.54,0.767,0.725
		c0.326,0.185,0.73,0.276,1.213,0.276c0.568,0,1.129-0.113,1.683-0.341c0.553-0.227,1.064-0.524,1.533-0.894
		c0.469-0.369,0.866-0.773,1.193-1.214c0.326-0.44,0.56-0.873,0.703-1.299L161.917,44.76z"/>
	<path d="M198.712,40.842c0.539,0.653,1.086,1.306,1.64,1.959s1.1,1.306,1.64,1.959c-0.426,1.249-1.115,2.456-2.065,3.62
		c-0.952,1.164-2.065,2.207-3.343,3.131c-1.278,0.922-2.662,1.66-4.152,2.215c-1.491,0.553-2.975,0.83-4.45,0.83
		c-4.742,0-7.638-1.875-8.688-5.623c-0.228,0.398-0.455,0.768-0.682,1.107c-0.228,0.342-0.497,0.668-0.809,0.98
		c-0.228,0.227-0.568,0.547-1.022,0.959c-0.455,0.41-1.022,0.816-1.704,1.213c-0.681,0.398-1.484,0.738-2.406,1.021
		c-0.923,0.283-1.995,0.426-3.215,0.426c-1.931,0-3.592-0.34-4.983-1.021s-2.534-1.611-3.428-2.789
		c-0.894-1.178-1.554-2.562-1.98-4.152c-0.426-1.59-0.639-3.307-0.639-5.154c0-0.453,0.014-1.143,0.042-2.065
		c0.028-0.922,0.113-1.98,0.256-3.173c0.142-1.192,0.341-2.47,0.596-3.833c0.255-1.362,0.61-2.726,1.064-4.088
		c0.454-1.363,1.022-2.669,1.704-3.918c0.682-1.249,1.497-2.356,2.449-3.322c0.951-0.965,2.065-1.731,3.343-2.3
		c1.278-0.567,2.74-0.852,4.387-0.852c0.852,0,1.661,0.093,2.427,0.277s1.476,0.411,2.129,0.681
		c0.653,0.271,1.249,0.562,1.789,0.873c0.539,0.313,1.008,0.611,1.406,0.895l0.383-3.321l13.159,0.596l-2.257,22.316
		c-0.057,0.482-0.079,0.994-0.064,1.533c0.014,0.539,0.092,1.029,0.234,1.469c0.142,0.44,0.383,0.803,0.724,1.086
		c0.341,0.284,0.81,0.426,1.406,0.426c0.567,0,1.128-0.128,1.682-0.383c0.554-0.256,1.064-0.575,1.533-0.958
		c0.468-0.384,0.866-0.81,1.192-1.278C198.336,41.715,198.57,41.268,198.712,40.842z M179.165,27.979
		c-0.114-0.227-0.312-0.511-0.596-0.852c-0.284-0.341-0.739-0.511-1.363-0.511c-0.767,0-1.498,0.312-2.193,0.937
		c-0.696,0.625-1.306,1.491-1.831,2.599c-0.526,1.106-0.944,2.441-1.256,4.003c-0.313,1.562-0.469,3.279-0.469,5.153
		c0,1.221,0.085,2.179,0.256,2.874c0.17,0.696,0.383,1.214,0.639,1.555s0.525,0.547,0.809,0.617
		c0.284,0.071,0.539,0.106,0.767,0.106c0.682,0,1.412-0.213,2.193-0.639c0.781-0.426,1.355-1.149,1.725-2.172L179.165,27.979z"/>
	<path d="M237.68,40.842c0.539,0.653,1.086,1.306,1.64,1.959c0.553,0.653,1.1,1.306,1.64,1.959
		c-0.483,1.391-1.208,2.682-2.173,3.875c-0.965,1.191-2.08,2.236-3.343,3.129c-1.264,0.895-2.605,1.598-4.024,2.109
		c-1.42,0.51-2.825,0.766-4.216,0.766c-2.386,0-4.288-0.518-5.707-1.555c-1.42-1.035-2.414-2.447-2.981-4.236
		c-0.426,0.881-0.937,1.633-1.533,2.258c-0.341,0.34-0.752,0.709-1.234,1.105c-0.483,0.398-1.065,0.781-1.746,1.15
		c-0.682,0.369-1.463,0.674-2.343,0.916c-0.881,0.24-1.86,0.361-2.938,0.361c-1.846,0-3.4-0.297-4.664-0.895
		c-1.264-0.596-2.293-1.426-3.087-2.49c-0.795-1.064-1.37-2.328-1.725-3.791c-0.355-1.461-0.532-3.059-0.532-4.791
		c0-0.823,0.042-1.646,0.128-2.471l2.342-22.784l13.032,0.597l-2.258,22.443c-0.113,1.165-0.007,2.145,0.319,2.938
		c0.326,0.795,0.93,1.192,1.811,1.192c0.767,0,1.412-0.291,1.938-0.873c0.525-0.581,0.958-1.312,1.299-2.193l2.47-24.104
		l12.989,0.554l-2.385,23.423c-0.057,0.37-0.057,0.739,0,1.107c0.057,0.37,0.171,0.696,0.341,0.979
		c0.171,0.284,0.419,0.512,0.745,0.682c0.326,0.171,0.746,0.256,1.257,0.256C235.294,44.419,236.941,43.227,237.68,40.842z"/>
	<path d="M277.627,40.842c0.539,0.653,1.086,1.306,1.64,1.959s1.1,1.306,1.64,1.959c-0.483,1.391-1.207,2.676-2.173,3.854
		c-0.965,1.178-2.08,2.201-3.343,3.066c-1.264,0.865-2.605,1.541-4.024,2.023c-1.42,0.482-2.825,0.723-4.216,0.723
		c-2.329,0-4.195-0.488-5.601-1.469c-1.405-0.979-2.421-2.32-3.045-4.025c-0.228,0.371-0.447,0.732-0.66,1.086
		c-0.213,0.355-0.476,0.689-0.788,1.002c-0.228,0.256-0.568,0.582-1.022,0.979c-0.454,0.398-1.021,0.797-1.703,1.193
		c-0.682,0.398-1.483,0.738-2.406,1.021s-1.995,0.426-3.215,0.426c-1.903,0-3.543-0.326-4.919-0.979
		c-1.378-0.652-2.521-1.555-3.429-2.705c-0.909-1.15-1.583-2.52-2.022-4.109c-0.441-1.589-0.66-3.307-0.66-5.153
		c0-0.312,0.014-0.895,0.042-1.746s0.106-1.881,0.234-3.088c0.128-1.206,0.312-2.52,0.554-3.939
		c0.241-1.419,0.582-2.854,1.022-4.301c0.439-1.448,0.985-2.847,1.64-4.195c0.652-1.349,1.454-2.548,2.406-3.599
		c0.95-1.05,2.058-1.888,3.321-2.513c1.263-0.624,2.719-0.937,4.365-0.937c1.448,0,2.641,0.142,3.577,0.426
		c0.938,0.284,1.696,0.604,2.278,0.958c0.582,0.355,1.029,0.71,1.342,1.064c0.312,0.355,0.582,0.604,0.81,0.745l1.788-17.759
		l13.415-1.107c-0.34,2.925-0.674,6.033-1,9.327c-0.327,3.294-0.66,6.622-1.001,9.986s-0.682,6.687-1.022,9.966
		s-0.667,6.382-0.979,9.306c-0.085,0.397-0.128,0.809-0.128,1.234c0,0.37,0.035,0.739,0.106,1.107
		c0.071,0.369,0.206,0.696,0.405,0.979c0.198,0.284,0.453,0.519,0.767,0.703c0.312,0.185,0.709,0.276,1.192,0.276
		c0.567,0,1.113-0.113,1.64-0.341c0.524-0.227,1.001-0.524,1.427-0.894s0.787-0.773,1.086-1.214
		C277.265,41.7,277.485,41.268,277.627,40.842z M258.462,27.979c-0.113-0.227-0.312-0.511-0.596-0.852
		c-0.284-0.341-0.739-0.511-1.363-0.511c-0.767,0-1.498,0.312-2.193,0.937c-0.696,0.625-1.306,1.491-1.831,2.599
		c-0.525,1.106-0.944,2.441-1.256,4.003c-0.313,1.562-0.469,3.279-0.469,5.153c0,1.221,0.085,2.179,0.255,2.874
		c0.171,0.696,0.384,1.214,0.64,1.555c0.255,0.341,0.524,0.547,0.809,0.617c0.283,0.071,0.539,0.106,0.767,0.106
		c0.682,0,1.412-0.213,2.193-0.639c0.78-0.426,1.355-1.149,1.725-2.172L258.462,27.979z"/>
	<path d="M317.829,40.842c0.539,0.653,1.087,1.306,1.64,1.959c0.554,0.653,1.101,1.306,1.64,1.959
		c-0.426,1.249-1.114,2.456-2.065,3.62s-2.065,2.207-3.343,3.131c-1.277,0.922-2.662,1.66-4.152,2.215
		c-1.49,0.553-2.975,0.83-4.45,0.83c-4.742,0-7.638-1.875-8.688-5.623c-0.228,0.398-0.454,0.768-0.681,1.107
		c-0.228,0.342-0.497,0.668-0.81,0.98c-0.228,0.227-0.568,0.547-1.022,0.959c-0.454,0.41-1.021,0.816-1.703,1.213
		c-0.682,0.398-1.483,0.738-2.406,1.021s-1.995,0.426-3.215,0.426c-1.932,0-3.593-0.34-4.983-1.021
		c-1.392-0.682-2.534-1.611-3.428-2.789c-0.895-1.178-1.555-2.562-1.98-4.152c-0.426-1.59-0.639-3.307-0.639-5.154
		c0-0.453,0.014-1.143,0.042-2.065c0.028-0.922,0.113-1.98,0.256-3.173c0.142-1.192,0.341-2.47,0.596-3.833
		c0.256-1.362,0.61-2.726,1.065-4.088c0.453-1.363,1.021-2.669,1.703-3.918s1.497-2.356,2.449-3.322
		c0.95-0.965,2.065-1.731,3.343-2.3c1.277-0.567,2.739-0.852,4.387-0.852c0.852,0,1.661,0.093,2.428,0.277s1.476,0.411,2.129,0.681
		c0.653,0.271,1.249,0.562,1.789,0.873c0.539,0.313,1.007,0.611,1.405,0.895l0.383-3.321l13.16,0.596l-2.258,22.316
		c-0.057,0.482-0.078,0.994-0.063,1.533c0.014,0.539,0.092,1.029,0.234,1.469c0.142,0.44,0.383,0.803,0.724,1.086
		c0.341,0.284,0.81,0.426,1.405,0.426c0.568,0,1.129-0.128,1.683-0.383c0.554-0.256,1.064-0.575,1.533-0.958
		c0.469-0.384,0.865-0.81,1.192-1.278C317.453,41.715,317.687,41.268,317.829,40.842z M298.282,27.979
		c-0.114-0.227-0.313-0.511-0.597-0.852c-0.284-0.341-0.738-0.511-1.362-0.511c-0.767,0-1.498,0.312-2.193,0.937
		c-0.696,0.625-1.307,1.491-1.832,2.599c-0.525,1.106-0.943,2.441-1.256,4.003s-0.469,3.279-0.469,5.153
		c0,1.221,0.085,2.179,0.256,2.874c0.17,0.696,0.383,1.214,0.639,1.555s0.525,0.547,0.81,0.617c0.283,0.071,0.539,0.106,0.767,0.106
		c0.681,0,1.412-0.213,2.192-0.639c0.781-0.426,1.356-1.149,1.726-2.172L298.282,27.979z"/>
	<path d="M331.458,54.598c-1.42,0-2.79-0.172-4.11-0.512c-1.32-0.342-2.576-0.803-3.769-1.385s-2.336-1.234-3.429-1.959
		s-2.107-1.469-3.045-2.236l4.685-45.781l13.33-1.15l-1.916,18.271c1.078-0.682,2.129-1.192,3.151-1.533s2.129-0.511,3.321-0.511
		c1.817,0,3.357,0.305,4.621,0.915c1.263,0.611,2.3,1.427,3.109,2.449c0.809,1.021,1.427,2.215,1.853,3.577
		c0.426,1.363,0.709,2.811,0.852,4.344h1.788c0.568,0,1.278-0.049,2.13-0.148s1.731-0.234,2.641-0.405
		c0.908-0.17,1.781-0.361,2.619-0.574c0.837-0.213,1.512-0.433,2.022-0.66l-1.277,7.964c-1.618,0.767-3.294,1.349-5.025,1.746
		c-1.732,0.397-3.449,0.568-5.153,0.511l-0.085,0.937c-0.143,1.08-0.355,2.229-0.639,3.45c-0.284,1.221-0.696,2.428-1.235,3.62
		c-0.539,1.193-1.242,2.336-2.108,3.428c-0.866,1.094-1.959,2.059-3.278,2.896c-1.32,0.838-2.883,1.506-4.686,2.002
		S333.899,54.598,331.458,54.598z M333.246,44.589c0.823,0,1.533-0.383,2.13-1.149c0.596-0.767,1.093-1.696,1.49-2.79
		c0.397-1.093,0.71-2.242,0.938-3.449c0.227-1.206,0.383-2.264,0.468-3.173c-1.277-0.823-2.421-1.703-3.428-2.641
		c-1.009-0.937-1.853-1.901-2.534-2.896l-1.192,11.924c-0.058,0.398-0.106,0.81-0.149,1.235c-0.042,0.426-0.063,0.866-0.063,1.32
		C331.074,44.05,331.855,44.589,333.246,44.589z"/>
	<path d="M378.729,44.76c-0.483,1.391-1.229,2.682-2.236,3.875c-1.008,1.191-2.157,2.236-3.449,3.129
		c-1.292,0.895-2.669,1.598-4.131,2.109c-1.463,0.51-2.89,0.766-4.28,0.766c-1.789,0-3.308-0.275-4.557-0.83
		c-1.25-0.553-2.278-1.326-3.088-2.32c-0.809-0.994-1.398-2.201-1.768-3.621c-0.369-1.418-0.554-2.981-0.554-4.684
		c0-0.738,0.043-1.476,0.128-2.215l3.79-38.286L372,1.575c-0.313,2.896-0.64,5.998-0.979,9.306
		c-0.341,3.308-0.682,6.644-1.022,10.008c-0.341,3.365-0.682,6.701-1.022,10.009s-0.681,6.409-1.021,9.305
		c-0.086,0.427-0.128,0.781-0.128,1.065c0,0.426,0.035,0.845,0.106,1.256c0.07,0.412,0.198,0.767,0.383,1.064
		c0.185,0.299,0.44,0.54,0.767,0.725s0.73,0.276,1.214,0.276c0.567,0,1.129-0.113,1.683-0.341c0.554-0.227,1.064-0.524,1.533-0.894
		c0.468-0.369,0.865-0.773,1.192-1.214c0.326-0.44,0.561-0.873,0.702-1.299L378.729,44.76z"/>
	<path d="M413.225,45.952c-1.193,1.08-2.471,2.172-3.833,3.279c-1.363,1.107-2.861,2.102-4.493,2.98
		c-1.633,0.881-3.422,1.598-5.366,2.152c-1.945,0.553-4.082,0.83-6.409,0.83c-2.556,0-4.919-0.264-7.091-0.789
		c-2.172-0.523-4.054-1.377-5.644-2.555s-2.839-2.697-3.747-4.557c-0.909-1.859-1.363-4.138-1.363-6.835
		c0-1.845,0.135-3.69,0.405-5.536c0.269-1.846,0.709-3.605,1.319-5.281c0.61-1.675,1.392-3.243,2.343-4.706
		c0.951-1.462,2.108-2.726,3.471-3.79c1.363-1.064,2.938-1.901,4.728-2.513c1.788-0.61,3.818-0.916,6.09-0.916
		c2.641,0,4.855,0.249,6.644,0.746c1.789,0.497,3.229,1.242,4.323,2.235c1.092,0.994,1.873,2.229,2.342,3.705
		c0.469,1.477,0.703,3.181,0.703,5.11c0,0.994-0.313,1.917-0.938,2.769c-0.625,0.852-1.447,1.626-2.47,2.321
		s-2.201,1.327-3.535,1.895c-1.335,0.568-2.697,1.065-4.088,1.491c-1.392,0.426-2.769,0.773-4.131,1.043
		c-1.363,0.271-2.599,0.462-3.705,0.575c-0.029,0.199-0.051,0.383-0.064,0.554c-0.015,0.17-0.021,0.341-0.021,0.511
		c0,0.994,0.156,1.846,0.469,2.556s0.73,1.292,1.257,1.746c0.524,0.454,1.142,0.788,1.853,1c0.709,0.213,1.462,0.32,2.257,0.32
		c1.675,0,3.194-0.15,4.557-0.447c1.363-0.299,2.604-0.667,3.727-1.108c1.121-0.44,2.144-0.93,3.066-1.47
		c0.922-0.539,1.781-1.05,2.576-1.533L413.225,45.952z M389.035,34.283c0.852-0.057,1.661-0.249,2.428-0.575
		s1.469-0.752,2.108-1.277c0.639-0.525,1.185-1.122,1.64-1.789c0.453-0.667,0.78-1.369,0.979-2.108
		c-0.143-0.879-0.327-1.625-0.554-2.235c-0.228-0.61-0.696-0.916-1.405-0.916c-0.654,0-1.257,0.263-1.811,0.788
		s-1.051,1.214-1.49,2.065c-0.44,0.852-0.824,1.81-1.15,2.875C389.454,32.175,389.206,33.232,389.035,34.283z"/>
</g>
</svg>
